<svg xmlns="http://www.w3.org/2000/svg" width="64" height="64" viewBox="0 0 64 64" fill="none">
	<rect width="64" height="64" rx="16" fill="#0F172A"/>
	<rect x="10" y="12" width="24" height="16" rx="4" fill="#F59E0B"/>
	<rect x="14" y="16" width="16" height="2.5" rx="1.25" fill="#FDE68A"/>
	<rect x="14" y="21" width="12" height="2.5" rx="1.25" fill="#FCD34D"/>
	<path d="M45.915 17C41.734 22.582 38 27.419 38 33.382C38 39.255 42.925 44 49 44C55.075 44 60 39.255 60 33.382C60 27.419 56.266 22.582 52.085 17C51.348 16.016 50.652 16.016 49.915 17H45.915Z" fill="#38BDF8"/>
	<path d="M49 25C46.239 28.683 44 31.795 44 35.175C44 38.944 47.134 42 51 42C52.579 42 54.035 41.49 55.203 40.63C54.738 40.743 54.253 40.803 53.754 40.803C49.713 40.803 46.437 37.633 46.437 33.722C46.437 30.838 48.222 28.133 50.434 25.242C50.015 24.676 49.419 24.441 49 25Z" fill="#BAE6FD" fill-opacity="0.75"/>
	<path d="M11 43C11 40.791 12.791 39 15 39H31C33.209 39 35 40.791 35 43V45C35 47.209 33.209 49 31 49H15C12.791 49 11 47.209 11 45V43Z" fill="#FACC15"/>
	<path d="M20 39H26V49H20V39Z" fill="#EAB308"/>
</svg>